<svg width="132" height="40" viewBox="0 0 132 40" fill="none" xmlns="http://www.w3.org/2000/svg">
<g clip-path="url(#clip0_13_295)">
<path d="M12.0967 3H8.07758L16.3259 19.557L12.2018 28.1925H17.0615C17.7838 28.1925 18.4537 27.7748 18.7689 27.1012L21.6716 21.0119C22.105 20.0958 22.105 19.0181 21.6453 18.102L15.0388 4.85912C14.4871 3.71401 13.3444 3 12.0967 3Z" fill="url(#paint0_linear_13_295)"/>
<path d="M15.0519 4.85913C18.3486 11.4604 18.5981 14.8149 16.339 19.557L12.2017 28.1925H17.0614C17.7838 28.1925 18.4537 27.7748 18.7689 27.1012L21.6716 21.0119C22.105 20.0959 22.105 19.0181 21.6453 18.102L15.0519 4.85913Z" fill="url(#paint1_linear_13_295)"/>
<path d="M9.9164 38H13.9224L5.67401 21.4565L9.79819 12.8075H4.93848C4.21609 12.8075 3.54624 13.2251 3.23102 13.8987L0.328333 19.988C-0.1051 20.9041 -0.1051 21.9819 0.354602 22.898L6.94804 36.1408C7.52595 37.2859 8.66863 38 9.9164 38Z" fill="url(#paint2_linear_13_295)"/>
<path d="M6.94804 36.1409C3.65132 29.5396 3.40177 26.1851 5.66087 21.443L9.78505 12.7941H4.92535C4.20296 12.7941 3.53311 13.2117 3.21789 13.8853L0.328333 19.9881C-0.1051 20.9042 -0.1051 21.9819 0.354602 22.898L6.94804 36.1409Z" fill="white"/>
</g>
<path d="M35.5595 38C35.2637 38 34.9974 37.9437 34.7607 37.8312C34.5241 37.714 34.3381 37.5499 34.2029 37.339C34.0676 37.128 34 36.8819 34 36.6006H34.7734C34.7903 36.8115 34.8643 36.985 34.9953 37.121C35.1305 37.2569 35.3186 37.3249 35.5595 37.3249C35.8089 37.3249 36.0033 37.2593 36.1428 37.128C36.2822 36.992 36.352 36.8186 36.352 36.6076C36.352 36.4435 36.3076 36.3099 36.2188 36.2068C36.1343 36.1036 36.0265 36.0239 35.8955 35.9677C35.7687 35.9114 35.5912 35.8504 35.363 35.7848C35.0756 35.7004 34.841 35.616 34.6593 35.5316C34.4818 35.4426 34.3297 35.3066 34.2029 35.1238C34.0761 34.9409 34.0127 34.6971 34.0127 34.3924C34.0127 34.1111 34.0761 33.865 34.2029 33.654C34.3297 33.443 34.5072 33.2813 34.7354 33.1688C34.9636 33.0563 35.2278 33 35.5278 33C35.9547 33 36.3034 33.1195 36.5738 33.3586C36.8486 33.5931 37.0007 33.9165 37.0303 34.3291H36.2315C36.2188 34.151 36.1428 33.9986 36.0033 33.872C35.8638 33.7454 35.68 33.6821 35.4518 33.6821C35.2447 33.6821 35.0756 33.7407 34.9446 33.8579C34.8136 33.9752 34.7481 34.1439 34.7481 34.3643C34.7481 34.5143 34.7882 34.6385 34.8685 34.737C34.953 34.8308 35.0587 34.9058 35.1855 34.962C35.3123 35.0183 35.4856 35.0792 35.7053 35.1449C35.9969 35.2339 36.2336 35.323 36.4154 35.4121C36.6013 35.5012 36.7577 35.6395 36.8845 35.827C37.0155 36.0098 37.081 36.256 37.081 36.5654C37.081 36.8139 37.0197 37.0483 36.8972 37.2686C36.7788 37.489 36.6034 37.6671 36.371 37.8031C36.1428 37.9344 35.8723 38 35.5595 38Z" fill="white"/>
<path d="M47.1197 33.0633V33.7173H45.9469V37.9508H45.2242V33.7173H44.0451V33.0633H47.1197Z" fill="white"/>
<path d="M56.4797 37.9508L55.4654 35.9958H54.9139V37.9508H54.1912V33.0633H55.7127C56.0508 33.0633 56.336 33.1289 56.5685 33.2602C56.8052 33.3915 56.9806 33.5673 57.0947 33.7876C57.213 34.008 57.2722 34.2541 57.2722 34.526C57.2722 34.8448 57.1877 35.1355 57.0186 35.398C56.8538 35.6559 56.5981 35.8317 56.2515 35.9255L57.3419 37.9508H56.4797ZM54.9139 35.3558H55.7127C55.9831 35.3558 56.186 35.2808 56.3213 35.1308C56.4607 34.9808 56.5305 34.7792 56.5305 34.526C56.5305 34.2729 56.4628 34.0759 56.3276 33.9353C56.1923 33.79 55.9874 33.7173 55.7127 33.7173H54.9139V35.3558Z" fill="white"/>
<path d="M65.2589 33.7103V35.1449H66.7804V35.7989H65.2589V37.2968H66.9706V37.9508H64.5362V33.0563H66.9706V33.7103H65.2589Z" fill="white"/>
<path d="M76.8565 36.9522H75.0117L74.6948 37.9508H73.9404L75.5189 33.0563H76.3557L77.9343 37.9508H77.1735L76.8565 36.9522ZM76.6537 36.2982L75.9373 34.0267L75.2146 36.2982H76.6537Z" fill="white"/>
<path d="M89.6007 33.0633V37.9508H88.878V34.6034L87.534 37.9508H87.0332L85.6828 34.6034V37.9508H84.9601V33.0633H85.7399L87.2867 36.8959L88.8272 33.0633H89.6007Z" fill="white"/>
<path d="M97.6128 33.0633V37.9508H96.8901V33.0633H97.6128Z" fill="white"/>
<path d="M108.521 37.9508H107.798L105.624 34.301V37.9508H104.901V33.0563H105.624L107.798 36.699V33.0563H108.521V37.9508Z" fill="white"/>
<path d="M118.998 34.4698C118.884 34.226 118.726 34.0431 118.523 33.9212C118.32 33.7947 118.085 33.7314 117.819 33.7314C117.528 33.7314 117.268 33.804 117.039 33.9494C116.811 34.0947 116.632 34.301 116.501 34.5682C116.374 34.8354 116.31 35.1449 116.31 35.4965C116.31 35.8481 116.374 36.1599 116.501 36.4318C116.632 36.699 116.811 36.9053 117.039 37.0506C117.268 37.196 117.528 37.2686 117.819 37.2686C118.212 37.2686 118.531 37.1467 118.776 36.903C119.022 36.6592 119.172 36.3286 119.227 35.9114H117.572V35.2714H120V35.8973C119.954 36.2771 119.831 36.6263 119.632 36.9451C119.438 37.2639 119.182 37.5195 118.865 37.7117C118.552 37.8992 118.204 37.993 117.819 37.993C117.405 37.993 117.027 37.8875 116.684 37.6765C116.342 37.4609 116.069 37.1632 115.867 36.7834C115.668 36.4037 115.569 35.9747 115.569 35.4965C115.569 35.0183 115.668 34.5893 115.867 34.2096C116.069 33.8298 116.342 33.5345 116.684 33.3235C117.031 33.1078 117.409 33 117.819 33C118.288 33 118.705 33.1289 119.068 33.3868C119.436 33.6399 119.702 34.0009 119.867 34.4698H118.998Z" fill="white"/>
<path d="M39.1697 21.5823H47.4289V25.7529H34V3.24715H39.1697V21.5823Z" fill="white"/>
<path d="M72.1319 25.7529H68.1246C67.676 25.7529 67.3038 25.6499 67.0081 25.4439C66.7226 25.2277 66.5238 24.9548 66.4116 24.6253L65.0962 20.7018H56.6229L55.3075 24.6253C55.2055 24.9136 55.0067 25.1762 54.711 25.413C54.4153 25.6396 54.0533 25.7529 53.6251 25.7529H49.5872L58.2135 3.24715H63.5056L72.1319 25.7529ZM57.8159 17.1491H63.9032L61.8537 10.9859C61.7212 10.5946 61.5631 10.1363 61.3796 9.61115C61.2062 9.07567 61.0329 8.49899 60.8596 7.88113C60.6964 8.50929 60.5282 9.09111 60.3548 9.6266C60.1815 10.1621 60.0183 10.6255 59.8654 11.0168L57.8159 17.1491Z" fill="white"/>
<path d="M96.5436 14.4923C96.5436 16.1193 96.2632 17.6331 95.7023 19.0336C95.1517 20.4341 94.3717 21.6544 93.3622 22.6944C92.3528 23.7242 91.1343 24.5326 89.7067 25.1195C88.2894 25.7065 86.714 26 84.9806 26C83.2472 26 81.6667 25.7065 80.2392 25.1195C78.8116 24.5326 77.5881 23.7242 76.5684 22.6944C75.5589 21.6544 74.7738 20.4341 74.213 19.0336C73.6624 17.6331 73.3871 16.1193 73.3871 14.4923C73.3871 12.8652 73.6624 11.3515 74.213 9.95097C74.7738 8.55048 75.5589 7.33535 76.5684 6.30557C77.5881 5.2758 78.8116 4.46743 80.2392 3.88046C81.6667 3.29349 83.2472 3 84.9806 3C86.714 3 88.2894 3.29863 89.7067 3.8959C91.1343 4.48287 92.3528 5.29125 93.3622 6.32102C94.3717 7.35079 95.1517 8.56593 95.7023 9.96642C96.2632 11.3669 96.5436 12.8755 96.5436 14.4923ZM91.2515 14.4923C91.2515 13.3801 91.1088 12.3812 90.8233 11.4956C90.5378 10.5997 90.1248 9.84285 89.5844 9.22498C89.0541 8.60712 88.4016 8.13342 87.6266 7.8039C86.8517 7.47437 85.9697 7.30961 84.9806 7.30961C83.9813 7.30961 83.0891 7.47437 82.304 7.8039C81.529 8.13342 80.8714 8.60712 80.3309 9.22498C79.8007 9.84285 79.3929 10.5997 79.1074 11.4956C78.8218 12.3812 78.6791 13.3801 78.6791 14.4923C78.6791 15.6147 78.8218 16.6239 79.1074 17.5198C79.3929 18.4054 79.8007 19.1572 80.3309 19.775C80.8714 20.3929 81.529 20.8666 82.304 21.1961C83.0891 21.5153 83.9813 21.675 84.9806 21.675C85.9697 21.675 86.8517 21.5153 87.6266 21.1961C88.4016 20.8666 89.0541 20.3929 89.5844 19.775C90.1248 19.1572 90.5378 18.4054 90.8233 17.5198C91.1088 16.6239 91.2515 15.6147 91.2515 14.4923Z" fill="white"/>
<path d="M103.267 3.24715C103.492 3.24715 103.68 3.25744 103.833 3.27804C103.986 3.29863 104.124 3.33983 104.246 3.40161C104.369 3.4531 104.486 3.53033 104.598 3.63331C104.71 3.73629 104.838 3.87531 104.98 4.05037L115.564 17.5662C115.524 17.1336 115.493 16.7166 115.473 16.315C115.452 15.9031 115.442 15.5169 115.442 15.1565V3.24715H120V25.7529H117.308C116.91 25.7529 116.574 25.6911 116.299 25.5675C116.023 25.4439 115.758 25.2174 115.503 24.8878L104.996 11.4802C105.026 11.8715 105.052 12.2577 105.072 12.6387C105.093 13.0094 105.103 13.3595 105.103 13.6891V25.7529H100.545V3.24715H103.267Z" fill="white"/>
<defs>
<linearGradient id="paint0_linear_13_295" x1="7.0925" y1="3" x2="17.6997" y2="18.4459" gradientUnits="userSpaceOnUse">
<stop stop-color="white"/>
<stop offset="0.9997" stop-color="#E3F2F7"/>
</linearGradient>
<linearGradient id="paint1_linear_13_295" x1="16.0671" y1="17.337" x2="25.4337" y2="20.2939" gradientUnits="userSpaceOnUse">
<stop stop-color="white"/>
<stop offset="0.477083" stop-color="white" stop-opacity="0.4494"/>
<stop offset="1" stop-color="#EDFBFF"/>
</linearGradient>
<linearGradient id="paint2_linear_13_295" x1="10.4418" y1="38.9026" x2="6.23464" y2="16.982" gradientUnits="userSpaceOnUse">
<stop stop-color="white"/>
<stop offset="1" stop-color="#E3F2F6"/>
</linearGradient>
<clipPath id="clip0_13_295">
<rect width="22" height="35" fill="white" transform="translate(0 3)"/>
</clipPath>
</defs>
</svg>
